<svg xmlns="http://www.w3.org/2000/svg" width="24.992" height="18.483" viewBox="0 0 24.992 18.483">
    <g data-name="Grupo 13">
        <path data-name="Trazado 10" d="M1606.373 95.293a33.209 33.209 0 0 1 2.438-10.5 4.683 4.683 0 0 1 2.383-2.488 13.747 13.747 0 0 1 4.183-1.387.944.944 0 0 1 1.1.584c.278.587.606 1.149.892 1.732a.5.5 0 0 0 .561.329 17.185 17.185 0 0 1 1.9 0 .5.5 0 0 0 .562-.327c.3-.612.63-1.209.937-1.818a.858.858 0 0 1 .953-.509 12.956 12.956 0 0 1 5.613 2.2 1.622 1.622 0 0 1 .446.565 20.873 20.873 0 0 1 2.334 6.68c.283 1.5.444 3.02.673 4.528a1.355 1.355 0 0 1-.462 1.3 10.951 10.951 0 0 1-6.631 3.185 1.339 1.339 0 0 1-1.382-.582c-.431-.628-.945-1.2-1.4-1.81a.729.729 0 0 0-.689-.321c-1.281.028-2.564 0-3.846.019a.891.891 0 0 0-.595.274c-.557.656-1.049 1.369-1.624 2.008a1.277 1.277 0 0 1-.863.405 10.45 10.45 0 0 1-7.231-3.472 1.492 1.492 0 0 1-.252-.595zm15.433-11.566c.156.032.265.046.37.077 1.3.386 2.614.751 3.907 1.171a.705.705 0 0 1 .514.989c-.175.427-.59.55-1.1.343a17.064 17.064 0 0 0-13.235 0 .773.773 0 0 1-1.085-.3.725.725 0 0 1 .5-1.035c.99-.356 1.995-.675 3-.982.408-.125.837-.18 1.288-.273-.179-.346-.351-.625-.472-.924-.127-.316-.308-.43-.634-.3-1.083.428-2.169.848-3.252 1.276a2.464 2.464 0 0 0-1.317 1.352 29.373 29.373 0 0 0-2.393 9.795.463.463 0 0 0 .138.333 9.25 9.25 0 0 0 5.321 2.624.582.582 0 0 0 .436-.1c.379-.434.723-.9 1.113-1.394-.167-.045-.257-.072-.348-.093a13.516 13.516 0 0 1-4.358-1.762.738.738 0 1 1 .781-1.24c.324.186.639.389.974.554a14.875 14.875 0 0 0 6.121 1.432 15.156 15.156 0 0 0 8.622-1.934c.49-.3.916-.259 1.16.107.258.386.117.819-.383 1.136a13.189 13.189 0 0 1-3.945 1.625c-.21.051-.418.108-.677.176.363.461.655.874 1 1.242a.781.781 0 0 0 .557.242 9.06 9.06 0 0 0 5.316-2.622.63.63 0 0 0 .116-.476c-.161-1.24-.3-2.484-.527-3.713a20.956 20.956 0 0 0-2.085-6.361 1.376 1.376 0 0 0-.494-.573 19.582 19.582 0 0 0-2.9-1.354c-1.67-.525-1.199-.629-2.029.962z" style="fill:#fff" transform="translate(-1606.373 -80.904)"/>
        <path data-name="Trazado 11" d="M1624.946 90.437a2.929 2.929 0 0 1-.846 2.141 2.448 2.448 0 0 1-3.811-.332 3.017 3.017 0 0 1-.393-2.831 2.576 2.576 0 0 1 2.777-1.818 2.75 2.75 0 0 1 2.254 2.477c.012.126.014.259.019.363zm-1.421.123a5.97 5.97 0 0 0-.154-.706 1.069 1.069 0 0 0-2.078.01 1.608 1.608 0 0 0 .186 1.533.994.994 0 0 0 1.71-.015 4.229 4.229 0 0 0 .336-.822z" style="fill:#fff" transform="translate(-1606.373 -80.904)"/>
        <path data-name="Trazado 12" d="M1618.03 90.472a2.907 2.907 0 0 1-.852 2.112 2.445 2.445 0 0 1-3.692-.189 3.086 3.086 0 0 1 .261-4.157 2.352 2.352 0 0 1 2.669-.447 2.844 2.844 0 0 1 1.614 2.681zm-3.815-.04a1.448 1.448 0 0 0 1.083 1.434 1.088 1.088 0 0 0 1.184-.932 2.435 2.435 0 0 0-.182-1.348.988.988 0 0 0-1.776-.007 4.455 4.455 0 0 0-.309.853z" style="fill:#fff" transform="translate(-1606.373 -80.904)"/>
    </g>
</svg>
