<svg xmlns="http://www.w3.org/2000/svg" width="24.878" height="24.852" viewBox="0 0 24.878 24.852">
    <g data-name="Grupo 11">
        <path data-name="Trazado 5" d="M1572.535 102.55c-1.836 0-3.673.054-5.506-.015a6.8 6.8 0 0 1-6.857-7c-.045-3.751-.1-7.509.074-11.254a6.544 6.544 0 0 1 6.712-6.485q5.6-.148 11.208 0a6.625 6.625 0 0 1 6.739 6.525c.131 1.73.1 3.474.093 5.212 0 2.144.028 4.293-.1 6.431a6.679 6.679 0 0 1-6.76 6.569c-1.866.073-3.736.012-5.6.012zm.01-2.243v.079c1.218 0 2.437.008 3.656 0 .584-.006 1.168-.049 1.752-.077a4.523 4.523 0 0 0 4.717-4.51c.09-1.1.119-2.207.111-3.31-.019-2.713-.015-5.427-.137-8.136a4.2 4.2 0 0 0-3.3-4.088 5.948 5.948 0 0 0-1.44-.223c-3.557-.018-7.117-.079-10.672.012-2.838.073-4.648 1.681-4.729 4.3-.121 3.877-.1 7.762-.006 11.641a4.126 4.126 0 0 0 3.156 4.045 6.239 6.239 0 0 0 1.579.257c1.768.03 3.543.01 5.313.01z" style="fill:#fff" transform="translate(-1560.126 -77.72)"/>
        <path data-name="Trazado 6" d="M1566.157 90.156a6.407 6.407 0 1 1 6.4 6.429 6.416 6.416 0 0 1-6.4-6.429zm2.255-.025a4.153 4.153 0 1 0 4.171-4.131 4.163 4.163 0 0 0-4.171 4.131z" style="fill:#fff" transform="translate(-1560.126 -77.72)"/>
        <path data-name="Trazado 7" d="M1580.721 83.494a1.492 1.492 0 1 1-2.983-.024 1.492 1.492 0 0 1 2.983.024z" style="fill:#fff" transform="translate(-1560.126 -77.72)"/>
    </g>
</svg>
