<svg xmlns="http://www.w3.org/2000/svg" width="24.996" height="25" viewBox="0 0 24.996 25">
    <g data-name="Grupo 26">
        <path data-name="Trazado 30" d="M1723.984 90.138a12.5 12.5 0 1 1-12.49-12.492 12.551 12.551 0 0 1 12.49 12.492zm-17.857.953h-5.3a10.308 10.308 0 0 0 1.46 4.479l4.313-1.47zm-5.3-1.867h5.293l.475-3.034-4.322-1.475a10.438 10.438 0 0 0-1.443 4.509zm19.876-4.5-4.327 1.472.482 3.03h5.287a10.376 10.376 0 0 0-1.439-4.507zm1.443 6.337h-5.291l-.473 3.043 4.314 1.477a10.277 10.277 0 0 0 1.453-4.525zm-7.07-1.82c-.154-.848-.308-1.641-.436-2.438-.049-.3-.168-.414-.483-.374a10.259 10.259 0 0 1-1.41.1c-1.3-.015-2.6-.067-3.9-.088-.151 0-.42.069-.437.15-.192.863-.344 1.734-.514 2.645zm-6.685 4.648c.636-.046 1.185-.124 1.734-.119 1.332.01 2.664.064 4 .086.152 0 .424-.064.442-.143.191-.864.343-1.736.514-2.647h-7.17zm1.045-14.2a10.005 10.005 0 0 0-6.042 3.574l3.66 1.163zm-6.111 17.372a10.868 10.868 0 0 0 6.136 3.6l-2.408-4.8zm16.281-13.807c-1.435-1.937-4.6-3.547-6.05-3.539l2.365 4.715zm-6.089 17.407a10.808 10.808 0 0 0 6.128-3.6l-3.727-1.189zM1709 84.7h4.972a20.558 20.558 0 0 0-2.482-4.66 20.834 20.834 0 0 0-2.49 4.66zm2.493 15.563a20.447 20.447 0 0 0 2.466-4.668h-4.957a20.534 20.534 0 0 0 2.498 4.666z" style="fill:#fff" transform="translate(-1698.988 -77.646)"/>
    </g>
</svg>
