<svg xmlns="http://www.w3.org/2000/svg" width="25.045" height="25" viewBox="0 0 25.045 25">
    <g data-name="Grupo 277">
        <path data-name="Trazado 886" d="M1526.493 117.3a12.469 12.469 0 0 1-1.535-.013 14.65 14.65 0 0 1-1.988-.394 11.289 11.289 0 0 1-3.716-1.787c-.455-.33-.887-.695-1.308-1.068a11.62 11.62 0 0 1-2.327-2.891 12.716 12.716 0 0 1-1.391-3.564 13.437 13.437 0 0 1-.262-3.614 11.03 11.03 0 0 1 .465-2.625 12.288 12.288 0 0 1 .881-2.213 11.408 11.408 0 0 1 1.46-2.215c.3-.354.606-.711.94-1.036a12.675 12.675 0 0 1 2.617-1.963 12.311 12.311 0 0 1 3.461-1.316 13.312 13.312 0 0 1 1.528-.217 11.792 11.792 0 0 1 1.38-.064 12.54 12.54 0 0 1 5.482 1.375 11.012 11.012 0 0 1 2.292 1.532c.448.4.9.8 1.3 1.242a11.95 11.95 0 0 1 1.692 2.37 12.587 12.587 0 0 1 .931 2.154 13.327 13.327 0 0 1 .483 2.1 13.718 13.718 0 0 1 .087 2.678 10.7 10.7 0 0 1-.461 2.6 12.342 12.342 0 0 1-.913 2.272 11.026 11.026 0 0 1-1.491 2.215c-.391.44-.787.879-1.216 1.279a11.914 11.914 0 0 1-2.347 1.693 12.413 12.413 0 0 1-2.215.962 10.055 10.055 0 0 1-2.359.5c-.486.038-.979.008-1.47.008zm10.873-11.542c.019-6.866-4.881-11.818-10.939-11.814a10.934 10.934 0 0 0-10.974 11 10.962 10.962 0 0 0 18.573 7.9 10.481 10.481 0 0 0 3.34-7.085z" style="fill:#fff" transform="translate(-1513.947 -92.319)"/>
        <path data-name="Trazado 887" d="M1527 100.212a8.509 8.509 0 0 1 .935.135 1.64 1.64 0 0 1 .786.672 8.09 8.09 0 0 1 .793 1.166 4.207 4.207 0 0 1 .533 1.6 8.346 8.346 0 0 1 .04 1.474 3.168 3.168 0 0 1-.544 1.823 7.6 7.6 0 0 1-.656.649 2.742 2.742 0 0 0-1.913-.846v1.615c.061 0 .129.009.2.009h1.76a.949.949 0 0 0 .976-.688.256.256 0 0 1 .287-.205 6.2 6.2 0 0 0 2.75-.658c.049-.024.106-.036.153-.063a.218.218 0 0 1 .334.1c.074.15-.029.248-.15.325a5.082 5.082 0 0 0-.434.286 4.134 4.134 0 0 0-1.185 1.851 7.868 7.868 0 0 1-.5 1.021c-.2.351-.42.384-.8.23a2.175 2.175 0 0 0-.733-.192 1.221 1.221 0 0 0-.586.179 1.282 1.282 0 0 1-1.274-.041 1.072 1.072 0 0 0-1.037-.033 1.375 1.375 0 0 1-1.427.045 1.213 1.213 0 0 0-1.264.045 1.171 1.171 0 0 1-1.159-.023 1.25 1.25 0 0 0-1.267 0c-.3.165-.467.115-.658-.175a5.3 5.3 0 0 1-.83-2.219c-.048-.352-.058-.709-.087-1.064-.015-.183.069-.25.249-.249q1.475.008 2.949 0c.171 0 .244.067.238.238a1.33 1.33 0 0 0 .167.865.916.916 0 0 0 .714.419c.585.023 1.173.007 1.775.007v-1.628c-.247.024-.493.051-.74.072-.063.006-.163.016-.184-.016a.282.282 0 0 1-.032-.219 7.054 7.054 0 0 0 .341-2.258 9.119 9.119 0 0 0-.223-2.372 6.326 6.326 0 0 0-.658-1.737.683.683 0 0 1-.07-.15c-.024-.083-.037-.168-.054-.253a1.57 1.57 0 0 1 .247-.01c.461.05.922.105 1.4.161v-.481a.819.819 0 0 1-.347-1 .885.885 0 0 1 .766-.5.784.784 0 0 1 .715.647.733.733 0 0 1-.217.695.261.261 0 0 0-.078.159c-.007.192-.001.389-.001.592z" style="fill:#fff" transform="translate(-1513.947 -92.319)"/>
        <path data-name="Trazado 888" d="M1524.7 104.621c0 .5-.005 1 0 1.5 0 .193-.069.26-.261.259-.911-.007-1.822 0-2.733 0-.225 0-.269-.062-.191-.262.483-1.24.969-2.479 1.447-3.722.064-.168.132-.214.3-.128q.609.3 1.232.578a.286.286 0 0 1 .2.314c-.001.486.006.974.006 1.461z" style="fill:#fff" transform="translate(-1513.947 -92.319)"/>
    </g>
</svg>
