<svg xmlns="http://www.w3.org/2000/svg" width="24.991" height="25" viewBox="0 0 24.991 25">
    <g data-name="Grupo 12">
        <path data-name="Trazado 8" d="M1665.128 77.654c1.983 0 3.967-.022 5.95 0a6.465 6.465 0 0 1 6.365 5.158 6.971 6.971 0 0 1 .157 1.5q.018 5.829 0 11.659a6.476 6.476 0 0 1-5.171 6.506 6.093 6.093 0 0 1-1.3.149c-4 .011-8 .032-12 0a6.444 6.444 0 0 1-6.348-5.178 6.842 6.842 0 0 1-.15-1.45c-.012-3.9-.02-7.805 0-11.708a6.456 6.456 0 0 1 5.148-6.471 7.852 7.852 0 0 1 1.643-.161c1.9-.019 3.8-.008 5.706-.008zm-10.862 12.5c0 2.081-.059 4.165.016 6.244a4.728 4.728 0 0 0 4.578 4.581c2.973.083 5.949.038 8.925.041 1.2 0 2.408.028 3.608-.033a4.757 4.757 0 0 0 4.554-4.56c.084-3.1.039-6.211.043-9.317 0-1.089.024-2.181-.034-3.268a4.849 4.849 0 0 0-4.533-4.547h-.1c-4.145 0-8.292-.055-12.436.021a4.71 4.71 0 0 0-4.608 4.6c-.073 2.074-.014 4.158-.013 6.239z" style="fill:#fff" transform="translate(-1652.62 -77.646)"/>
        <path data-name="Trazado 9" d="M1660.433 93.563c-.559-.64-1.142-1.274-1.688-1.938a4.891 4.891 0 0 1-1.2-3.512c.075-1.083.223-2.162.369-3.238a.911.911 0 0 1 .685-.86.957.957 0 0 1 .961.441 7.763 7.763 0 0 0 4.528 2.531c.07-.295.12-.579.2-.852a3.771 3.771 0 0 1 5.434-2.216 2.515 2.515 0 0 0 2.208.121c.387-.122.744-.26 1.094.049.369.326.258.72.175 1.129a7.172 7.172 0 0 1-1.182 2.276 1.608 1.608 0 0 0-.256.71 9.231 9.231 0 0 1-8.474 8.6 9.611 9.611 0 0 1-5.751-1.289c-.394-.23-.685-.511-.551-1.016.116-.44.429-.617 1.039-.582a5.386 5.386 0 0 0 2.409-.354zm.659 1.546c.242.038.433.081.626.1a7.7 7.7 0 0 0 8.468-7.422 2.367 2.367 0 0 1 .3-.9c.17-.333.4-.635.69-1.075a1.925 1.925 0 0 1-2.015-.358 1.989 1.989 0 0 0-2.419-.023 2.057 2.057 0 0 0-.96 2.179c.113.758-.217 1.188-.956 1.066a16.732 16.732 0 0 1-3.1-.747 17.744 17.744 0 0 1-2.439-1.346 4.574 4.574 0 0 0 1.505 4.87c.551.45 1.143.853 1.733 1.252.64.433.689 1.049.06 1.492-.462.323-.961.59-1.493.912z" style="fill:#fff" transform="translate(-1652.62 -77.646)"/>
    </g>
</svg>
